<svg width="21" height="21" viewBox="0 0 21 21" fill="none" xmlns="http://www.w3.org/2000/svg">
<path d="M19.3 20.425L17.35 18.475C17.3167 18.4917 17.2877 18.5 17.263 18.5H4.30001C3.80001 18.5 3.37501 18.325 3.02501 17.975C2.67501 17.625 2.50001 17.2 2.50001 16.7V3.73702C2.50001 3.71236 2.50835 3.68336 2.52501 3.65002L0.575012 1.70002L1.65001 0.650024L20.35 19.35L19.3 20.425ZM4.30001 17H15.875L13.625 14.75H5.50001L8.25001 11.1L10.2 13.6L11.175 12.3L4.00001 5.12502V16.7C4.00001 16.7834 4.02935 16.8544 4.08801 16.913C4.14601 16.971 4.21668 17 4.30001 17ZM19.5 15.675L18 14.175V3.30002C18 3.21669 17.971 3.14602 17.913 3.08802C17.8543 3.02936 17.7833 3.00002 17.7 3.00002H6.82501L5.32501 1.50002H17.7C18.2 1.50002 18.625 1.67502 18.975 2.02502C19.325 2.37502 19.5 2.80002 19.5 3.30002V15.675Z" fill="#1C1B1F"/>
</svg>
