<svg width="14" height="14" viewBox="0 0 14 14" fill="none" xmlns="http://www.w3.org/2000/svg">
  <path d="M6.3335 10.3335H7.66683V6.3335H6.3335V10.3335ZM7.00016 5.00016C7.18905 5.00016 7.3475 4.93616 7.4755 4.80816C7.60305 4.68061 7.66683 4.52238 7.66683 4.3335C7.66683 4.14461 7.60305 3.98616 7.4755 3.85816C7.3475 3.73061 7.18905 3.66683 7.00016 3.66683C6.81127 3.66683 6.65305 3.73061 6.5255 3.85816C6.3975 3.98616 6.3335 4.14461 6.3335 4.3335C6.3335 4.52238 6.3975 4.68061 6.5255 4.80816C6.65305 4.93616 6.81127 5.00016 7.00016 5.00016ZM7.00016 13.6668C6.07794 13.6668 5.21127 13.4917 4.40016 13.1415C3.58905 12.7917 2.8835 12.3168 2.2835 11.7168C1.6835 11.1168 1.20861 10.4113 0.858829 9.60016C0.508607 8.78905 0.333496 7.92238 0.333496 7.00016C0.333496 6.07794 0.508607 5.21127 0.858829 4.40016C1.20861 3.58905 1.6835 2.8835 2.2835 2.2835C2.8835 1.6835 3.58905 1.20838 4.40016 0.858163C5.21127 0.508385 6.07794 0.333496 7.00016 0.333496C7.92238 0.333496 8.78905 0.508385 9.60016 0.858163C10.4113 1.20838 11.1168 1.6835 11.7168 2.2835C12.3168 2.8835 12.7917 3.58905 13.1415 4.40016C13.4917 5.21127 13.6668 6.07794 13.6668 7.00016C13.6668 7.92238 13.4917 8.78905 13.1415 9.60016C12.7917 10.4113 12.3168 11.1168 11.7168 11.7168C11.1168 12.3168 10.4113 12.7917 9.60016 13.1415C8.78905 13.4917 7.92238 13.6668 7.00016 13.6668ZM7.00016 12.3335C8.47794 12.3335 9.73638 11.8142 10.7755 10.7755C11.8142 9.73638 12.3335 8.47794 12.3335 7.00016C12.3335 5.52238 11.8142 4.26394 10.7755 3.22483C9.73638 2.18616 8.47794 1.66683 7.00016 1.66683C5.52238 1.66683 4.26416 2.18616 3.2255 3.22483C2.18638 4.26394 1.66683 5.52238 1.66683 7.00016C1.66683 8.47794 2.18638 9.73638 3.2255 10.7755C4.26416 11.8142 5.52238 12.3335 7.00016 12.3335Z" fill="#00CDB4"/>
</svg>
