<svg width="16" height="16" viewBox="0 0 16 16" fill="none" xmlns="http://www.w3.org/2000/svg">
<path d="M7.3335 11.3335H8.66683V7.3335H7.3335V11.3335ZM8.00016 6.00016C8.18905 6.00016 8.3475 5.93616 8.4755 5.80816C8.60305 5.68061 8.66683 5.52238 8.66683 5.3335C8.66683 5.14461 8.60305 4.98616 8.4755 4.85816C8.3475 4.73061 8.18905 4.66683 8.00016 4.66683C7.81127 4.66683 7.65305 4.73061 7.5255 4.85816C7.3975 4.98616 7.3335 5.14461 7.3335 5.3335C7.3335 5.52238 7.3975 5.68061 7.5255 5.80816C7.65305 5.93616 7.81127 6.00016 8.00016 6.00016ZM8.00016 14.6668C7.07794 14.6668 6.21127 14.4917 5.40016 14.1415C4.58905 13.7917 3.8835 13.3168 3.2835 12.7168C2.6835 12.1168 2.20861 11.4113 1.85883 10.6002C1.50861 9.78905 1.3335 8.92238 1.3335 8.00016C1.3335 7.07794 1.50861 6.21127 1.85883 5.40016C2.20861 4.58905 2.6835 3.8835 3.2835 3.2835C3.8835 2.6835 4.58905 2.20838 5.40016 1.85816C6.21127 1.50838 7.07794 1.3335 8.00016 1.3335C8.92238 1.3335 9.78905 1.50838 10.6002 1.85816C11.4113 2.20838 12.1168 2.6835 12.7168 3.2835C13.3168 3.8835 13.7917 4.58905 14.1415 5.40016C14.4917 6.21127 14.6668 7.07794 14.6668 8.00016C14.6668 8.92238 14.4917 9.78905 14.1415 10.6002C13.7917 11.4113 13.3168 12.1168 12.7168 12.7168C12.1168 13.3168 11.4113 13.7917 10.6002 14.1415C9.78905 14.4917 8.92238 14.6668 8.00016 14.6668ZM8.00016 13.3335C9.47794 13.3335 10.7364 12.8142 11.7755 11.7755C12.8142 10.7364 13.3335 9.47794 13.3335 8.00016C13.3335 6.52238 12.8142 5.26394 11.7755 4.22483C10.7364 3.18616 9.47794 2.66683 8.00016 2.66683C6.52238 2.66683 5.26416 3.18616 4.2255 4.22483C3.18638 5.26394 2.66683 6.52238 2.66683 8.00016C2.66683 9.47794 3.18638 10.7364 4.2255 11.7755C5.26416 12.8142 6.52238 13.3335 8.00016 13.3335Z" fill="#00DA93"/>
</svg>
