<svg width="16" height="16" viewBox="0 0 16 16" fill="none" xmlns="http://www.w3.org/2000/svg">
<mask id="mask0_3656_21107" style="mask-type:alpha" maskUnits="userSpaceOnUse" x="0" y="0" width="16" height="16">
<rect width="16" height="16" fill="#D9D9D9"/>
</mask>
<g mask="url(#mask0_3656_21107)">
<path d="M7.99989 15C6.69989 15 5.51944 14.6778 4.45855 14.0333C3.39722 13.3889 2.56655 12.5278 1.96655 11.45V12.9333C1.96655 13.0778 1.91944 13.1973 1.82522 13.292C1.73055 13.3862 1.611 13.4333 1.46655 13.4333C1.32211 13.4333 1.20277 13.3862 1.10855 13.292C1.01389 13.1973 0.966553 13.0778 0.966553 12.9333V10.3667C0.966553 10.2 1.025 10.0582 1.14189 9.94133C1.25833 9.82489 1.39989 9.76667 1.56655 9.76667H4.13322C4.27766 9.76667 4.39722 9.814 4.49189 9.90867C4.58611 10.0029 4.63322 10.1222 4.63322 10.2667C4.63322 10.4111 4.58611 10.5307 4.49189 10.6253C4.39722 10.7196 4.27766 10.7667 4.13322 10.7667H2.73322C3.22211 11.7444 3.93878 12.5278 4.88322 13.1167C5.82766 13.7056 6.86655 14 7.99989 14C9.54433 14 10.8806 13.4944 12.0086 12.4833C13.1361 11.4722 13.7888 10.2 13.9666 8.66667C13.9888 8.52222 14.047 8.40267 14.1412 8.308C14.2359 8.21378 14.3554 8.16667 14.4999 8.16667C14.6332 8.16667 14.7499 8.21667 14.8499 8.31667C14.9499 8.41667 14.9888 8.53333 14.9666 8.66667C14.8888 9.55556 14.6499 10.3862 14.2499 11.1587C13.8499 11.9307 13.3388 12.6 12.7166 13.1667C12.0943 13.7333 11.3806 14.1804 10.5752 14.508C9.76944 14.836 8.911 15 7.99989 15ZM1.49989 7.83333C1.36655 7.83333 1.24989 7.78333 1.14989 7.68333C1.04989 7.58333 1.011 7.46667 1.03322 7.33333C1.12211 6.42222 1.36655 5.58044 1.76655 4.808C2.16655 4.036 2.67766 3.36667 3.29989 2.8C3.92211 2.23333 4.63611 1.79156 5.44189 1.47467C6.24722 1.15822 7.09989 1 7.99989 1C9.28878 1 10.4692 1.32222 11.5412 1.96667C12.6137 2.61111 13.4443 3.48333 14.0332 4.58333V3.06667C14.0332 2.92222 14.0806 2.80267 14.1752 2.708C14.2694 2.61378 14.3888 2.56667 14.5332 2.56667C14.6777 2.56667 14.797 2.61378 14.8912 2.708C14.9859 2.80267 15.0332 2.92222 15.0332 3.06667V5.63333C15.0332 5.8 14.975 5.94156 14.8586 6.058C14.7417 6.17489 14.5999 6.23333 14.4332 6.23333H11.8666C11.7221 6.23333 11.6028 6.186 11.5086 6.09133C11.4139 5.99711 11.3666 5.87778 11.3666 5.73333C11.3666 5.58889 11.4139 5.46933 11.5086 5.37467C11.6028 5.28044 11.7221 5.23333 11.8666 5.23333H13.2666C12.7888 4.27778 12.0777 3.5 11.1332 2.9C10.1888 2.3 9.14433 2 7.99989 2C6.47766 2 5.14722 2.5 4.00855 3.5C2.86944 4.5 2.211 5.77778 2.03322 7.33333C2.011 7.47778 1.95278 7.59711 1.85855 7.69133C1.76389 7.786 1.64433 7.83333 1.49989 7.83333ZM7.98322 12.5333C7.861 12.5333 7.75544 12.4889 7.66655 12.4C7.57766 12.3111 7.53322 12.2056 7.53322 12.0833V11.7C7.111 11.6111 6.74989 11.4556 6.44989 11.2333C6.14989 11.0111 5.911 10.7111 5.73322 10.3333C5.67766 10.2222 5.67766 10.1056 5.73322 9.98333C5.78878 9.86111 5.87211 9.77778 5.98322 9.73333C6.09433 9.68889 6.20833 9.68889 6.32522 9.73333C6.44166 9.77778 6.53322 9.85556 6.59989 9.96667C6.76655 10.2667 6.98055 10.4973 7.24189 10.6587C7.50278 10.8196 7.78877 10.9 8.09989 10.9C8.47766 10.9 8.81655 10.8056 9.11655 10.6167C9.41655 10.4278 9.56655 10.1222 9.56655 9.7C9.56655 9.35556 9.43878 9.08045 9.18322 8.87467C8.92766 8.66933 8.44433 8.43333 7.73322 8.16667C7.04433 7.92222 6.54989 7.64711 6.24989 7.34133C5.94989 7.036 5.79989 6.63333 5.79989 6.13333C5.79989 5.7 5.95278 5.30822 6.25855 4.958C6.56389 4.60822 6.99989 4.37778 7.56655 4.26667V3.91667C7.56655 3.79444 7.611 3.68889 7.69989 3.6C7.78878 3.51111 7.89433 3.46667 8.01655 3.46667C8.13877 3.46667 8.24433 3.51111 8.33322 3.6C8.42211 3.68889 8.46655 3.79444 8.46655 3.91667V4.26667C8.76655 4.28889 9.04722 4.38333 9.30855 4.55C9.56944 4.71667 9.78878 4.92778 9.96655 5.18333C10.0443 5.28333 10.0581 5.39711 10.0079 5.52467C9.95811 5.65267 9.87211 5.73889 9.74989 5.78333C9.64989 5.82778 9.54722 5.83067 9.44189 5.792C9.33611 5.75289 9.23878 5.68333 9.14989 5.58333C9.02766 5.42778 8.87211 5.30267 8.68322 5.208C8.49433 5.11378 8.27766 5.06667 8.03322 5.06667C7.62211 5.06667 7.29722 5.16667 7.05855 5.36667C6.81944 5.56667 6.69989 5.82222 6.69989 6.13333C6.69989 6.44444 6.81655 6.68889 7.04989 6.86667C7.28322 7.04444 7.74989 7.25 8.44989 7.48333C9.24989 7.77222 9.78611 8.09733 10.0586 8.45867C10.3306 8.81956 10.4666 9.23333 10.4666 9.7C10.4666 10.3444 10.2583 10.8278 9.84189 11.15C9.425 11.4722 8.95544 11.6667 8.43322 11.7333V12.0833C8.43322 12.2056 8.38878 12.3111 8.29989 12.4C8.211 12.4889 8.10544 12.5333 7.98322 12.5333Z" fill="#FF6B6F"/>
</g>
</svg>
