<svg width="104" height="40" viewBox="0 0 104 40" fill="none" xmlns="http://www.w3.org/2000/svg">
<path d="M103.299 23.3585L95.3384 20.7701C94.1571 20.3854 94.1571 18.7126 95.3384 18.3279L103.299 15.7394C103.832 15.5671 104.124 14.9944 103.95 14.4618L103.331 12.5539C103.158 12.0213 102.586 11.7289 102.054 11.9029L94.0927 14.4913C92.9115 14.876 91.9285 13.5218 92.6575 12.5157L97.5774 5.7391C97.9062 5.28651 97.8053 4.65116 97.3529 4.32216L95.7298 3.14197C95.2775 2.81298 94.6425 2.91394 94.3137 3.36652L89.3937 10.1431C88.6631 11.1492 87.073 10.6322 87.073 9.38935V1.01483C87.073 0.454323 86.6189 0 86.0587 0H84.0528C83.4926 0 83.0386 0.454323 83.0386 1.01483V38.0866C83.0386 38.6471 83.4926 39.1014 84.0528 39.1014H86.0587C86.6189 39.1014 87.073 38.6471 87.073 38.0866V29.7121C87.073 28.4692 88.6631 27.9522 89.3937 28.9583L94.3137 35.7349C94.6425 36.1875 95.2757 36.2884 95.7298 35.9594L97.3529 34.7792C97.8053 34.4502 97.9062 33.8149 97.5774 33.3623L92.6575 26.5857C91.9268 25.5796 92.9097 24.2254 94.0927 24.6101L102.054 27.1985C102.586 27.3708 103.158 27.0801 103.331 26.5475L103.95 24.6379C104.122 24.1052 103.832 23.5326 103.299 23.3602V23.3585Z" fill="#00DA93"/>
<path d="M16.1775 9.08992C14.7336 9.08992 13.481 8.02983 13.481 6.4249C13.481 4.81998 14.7336 3.75989 16.1775 3.75989C17.6215 3.75989 18.8741 4.81998 18.8741 6.4249C18.8741 8.02983 17.6215 9.08992 16.1775 9.08992ZM17.103 27.524H15.2833C14.9928 27.524 14.7144 27.4091 14.5091 27.2037C14.3038 26.9983 14.189 26.7198 14.189 26.4291V12.5644C14.189 12.2737 14.3038 11.9952 14.5091 11.7897C14.7144 11.5843 14.9928 11.4677 15.2833 11.4677H17.103C17.3936 11.4677 17.6719 11.5826 17.8772 11.788C18.0825 11.9934 18.1973 12.2719 18.1973 12.5626V26.4273C18.1973 26.718 18.0825 26.9965 17.8772 27.2019C17.6719 27.4073 17.3936 27.524 17.103 27.524Z" fill="#025B37"/>
<path d="M10.6662 11.788C10.4609 11.5826 10.1826 11.466 9.89202 11.466H1.09428C0.803749 11.466 0.525394 11.5809 0.320108 11.7863C0.114821 11.9917 0 12.2719 0 12.5626V26.4273C0 26.718 0.114821 26.9965 0.320108 27.2019C0.525394 27.4073 0.803749 27.524 1.09428 27.524H2.91402C3.20456 27.524 3.48291 27.4091 3.6882 27.2037C3.89348 26.9983 4.0083 26.7198 4.0083 26.4291V15.4818H9.89028C10.1808 15.4818 10.4592 15.3669 10.6645 15.1615C10.8697 14.9561 10.9846 14.6758 10.9846 14.3851V12.5644C10.9846 12.2737 10.8697 11.9951 10.6645 11.7897L10.6662 11.788Z" fill="#025B37"/>
<path d="M26.5514 27.524H23.7313C23.4408 27.524 23.1624 27.4091 22.9571 27.2037C22.7519 26.9983 22.637 26.7198 22.637 26.4291V24.0582C21.8994 22.7736 21.5132 21.2 21.5132 19.4976C21.5132 17.7952 21.8977 16.2216 22.637 14.937V5.49886C22.637 5.20817 22.7519 4.92965 22.9571 4.72425C23.1624 4.51885 23.4408 4.40222 23.7313 4.40222H25.5511C25.8416 4.40222 26.12 4.51711 26.3252 4.72251C26.5305 4.92791 26.6453 5.20643 26.6453 5.49712V11.4347C27.6405 11.05 28.7956 10.8237 30.0152 10.8237C35.1178 10.8237 38.5206 14.4844 38.5206 19.4941C38.5206 24.5039 35.1178 28.1646 30.0152 28.1646C28.7626 28.1646 27.5761 27.94 26.5479 27.5222L26.5514 27.524ZM34.5106 19.4959C34.5106 16.7334 32.6491 14.6793 30.0169 14.6793C27.3847 14.6793 25.5232 16.7351 25.5232 19.4959C25.5232 22.2566 27.3847 24.3124 30.0169 24.3124C32.6491 24.3124 34.5106 22.2566 34.5106 19.4959Z" fill="#025B37"/>
<path d="M57.7253 19.4958C57.7253 24.5056 54.3224 28.1663 49.2198 28.1663C44.1172 28.1663 40.7144 24.5056 40.7144 19.4958C40.7144 14.4861 44.1172 10.8254 49.2198 10.8254C54.3224 10.8254 57.7253 14.4861 57.7253 19.4958ZM44.7261 19.4958C44.7261 22.2566 46.5876 24.3123 49.2198 24.3123C51.852 24.3123 53.7135 22.2566 53.7135 19.4958C53.7135 16.7351 51.852 14.6793 49.2198 14.6793C46.5876 14.6793 44.7261 16.7351 44.7261 19.4958Z" fill="#025B37"/>
<path d="M61.7563 11.4677H63.5499C63.7552 11.4677 63.9518 11.5495 64.0979 11.694C64.3519 11.9481 64.7416 11.9881 65.0496 11.8036C66.0951 11.177 67.3756 10.8236 68.7499 10.8236C72.666 10.8236 75.554 13.6505 75.554 17.4069V26.4273C75.554 26.718 75.4391 26.9965 75.2338 27.2019C75.0286 27.4073 74.7502 27.5239 74.4597 27.5239H72.6399C72.3494 27.5239 72.071 27.409 71.8658 27.2019C71.6605 26.9965 71.5457 26.718 71.5457 26.4273V17.8891C71.5457 15.9308 70.0043 14.5174 68.1114 14.5174C66.2186 14.5174 64.6773 15.802 64.6773 17.5671V26.4255C64.6773 26.7162 64.5624 26.9947 64.3571 27.2001C64.1519 27.4055 63.8735 27.5222 63.583 27.5222H61.7632C61.4727 27.5222 61.1943 27.4073 60.9891 27.2001C60.7838 26.9947 60.6689 26.7162 60.6689 26.4255V12.5626C60.6689 12.2719 60.7838 11.9934 60.9891 11.788C61.1943 11.5826 61.4727 11.4659 61.7632 11.4659L61.7563 11.4677Z" fill="#025B37"/>
</svg>
