<svg width="104" height="50" viewBox="0 0 104 50" fill="none" xmlns="http://www.w3.org/2000/svg">
<path d="M91.7659 21.5253C90.5091 21.5253 90.7251 21.08 88.0151 21.08C85.737 21.08 83.5179 22.106 82.1631 23.3061C82.1631 19.1443 85.7568 14.1308 91.7659 14.1308C94.142 14.1308 95.5166 16.0859 95.5166 17.828C95.5166 19.8799 93.8475 21.5253 91.7659 21.5253ZM96.4786 13.0468C96.4786 14.9825 97.7747 15.1761 97.7747 17.828C97.7945 19.8799 96.7145 21.7963 94.947 22.8609C98.4817 22.8609 104 19.6476 104 13.0468C104 10.9949 102.331 9.34957 100.249 9.34957C98.1676 9.34957 96.4786 10.9949 96.4786 13.0468ZM94.947 0C92.9637 0 91.3338 1.50987 91.1962 3.46496C91.1962 3.54238 91.1962 3.63915 91.1962 3.71658C91.1962 3.79401 91.1962 3.89081 91.1962 3.96824C91.1375 6.34918 90.1752 8.61398 88.4863 10.3174C88.3292 10.4529 88.1917 10.5884 88.0544 10.7433C87.7206 11.0723 87.426 11.4401 87.1509 11.8079C86.8368 12.2338 86.5618 12.6984 86.3067 13.1823C87.5045 12.5629 88.8201 12.1564 90.1555 11.9821C90.293 11.9628 90.45 11.9434 90.5876 11.9241C94.4954 11.3627 97.6767 8.5172 98.58 4.72317C98.6192 4.54894 98.6585 4.39409 98.6782 4.21989C98.6977 4.04566 98.7175 3.89081 98.7175 3.71658C98.6977 1.66472 97.009 0 94.947 0Z" fill="#00CDB4"/>
<path d="M7.26583 31.5329C9.0332 28.9197 11.5861 27.4678 14.7281 27.4294V33.8945C10.4078 33.5269 7.65859 35.4626 7.26583 38.6176V49.5933H0V27.1389H7.26583V31.5329Z" fill="#00CDB4"/>
<path d="M23.4486 21.5251C23.4486 23.7706 21.858 25.3385 19.6193 25.3385C17.3807 25.3385 15.79 23.7706 15.79 21.5251C15.79 19.3378 17.3807 17.7698 19.6193 17.7698C21.858 17.7698 23.4486 19.3184 23.4486 21.5251Z" fill="#00CDB4"/>
<path d="M23.5647 27.1389H16.2988V49.5933H23.5647V27.1389Z" fill="#00CDB4"/>
<path d="M50.1154 38.6959C50.1154 45.4905 46.1288 50.0007 39.7862 50.0007C36.8404 50.0007 34.7588 48.8393 32.9916 46.7679V49.594H25.5293V17.6547H32.9916V30.3918C34.7588 28.3591 36.7619 27.1977 39.6289 27.1977C45.9916 27.1977 50.1154 31.7854 50.1154 38.6959ZM42.8102 38.5025C42.8102 35.115 40.7484 32.7146 37.7241 32.7146C34.7786 32.7146 32.7363 35.115 32.7363 38.5025C32.7363 41.9867 34.7981 44.3291 37.7241 44.3291C40.7484 44.3291 42.8102 41.9287 42.8102 38.5025Z" fill="#00CDB4"/>
<path d="M70.6747 38.579C70.6747 45.4507 65.7261 49.9997 58.3229 49.9997C50.9 49.9997 45.9316 45.4507 45.9316 38.579C45.9316 31.7072 50.8802 27.197 58.3229 27.197C65.7066 27.197 70.6747 31.7072 70.6747 38.579ZM53.2368 38.6565C53.2368 42.1407 55.2986 44.4443 58.3229 44.4443C61.3077 44.4443 63.3698 42.1215 63.3698 38.6565C63.3698 35.2302 61.3077 32.8686 58.3229 32.8686C55.2986 32.8686 53.2368 35.2302 53.2368 38.6565Z" fill="#00CDB4"/>
<path d="M95.2402 35.676V49.5937H88.3672V37.6696C88.3672 35.0564 86.7963 33.4498 84.3614 33.4498C81.7101 33.4498 79.9232 35.3081 79.7269 37.96V49.5937H72.2646V27.1394H79.7269V31.0883C81.2978 28.475 83.7722 27.1586 87.1301 27.1199C92.1179 27.1199 95.2402 30.4687 95.2402 35.676Z" fill="#00CDB4"/>
</svg>
