<svg width="16" height="16" viewBox="0 0 16 16" fill="none" xmlns="http://www.w3.org/2000/svg">
<path d="M13.9646 5.00351V3.40351C13.9646 2.63158 13.333 2 12.5611 2H2.73652C1.95757 2 1.33301 2.63158 1.33301 3.40351V13.2281C1.33301 14 1.95757 14.6316 2.73652 14.6316H12.5611C13.333 14.6316 13.9646 14 13.9646 13.2281V11.6281C14.3786 11.3825 14.6663 10.9404 14.6663 10.4211V6.21053C14.6663 5.69123 14.3786 5.24912 13.9646 5.00351ZM13.2628 6.21053V10.4211H8.35055V6.21053H13.2628ZM2.73652 13.2281V3.40351H12.5611V4.80702H8.35055C7.57862 4.80702 6.94704 5.4386 6.94704 6.21053V10.4211C6.94704 11.193 7.57862 11.8246 8.35055 11.8246H12.5611V13.2281H2.73652Z" fill="#00DA93"/>
<path d="M10.456 9.36845C11.0373 9.36845 11.5086 8.89717 11.5086 8.31582C11.5086 7.73446 11.0373 7.26318 10.456 7.26318C9.8746 7.26318 9.40332 7.73446 9.40332 8.31582C9.40332 8.89717 9.8746 9.36845 10.456 9.36845Z" fill="#00DA93"/>
</svg>
