<svg width="16" height="16" viewBox="0 0 16 16" fill="none" xmlns="http://www.w3.org/2000/svg">
<path d="M0.666504 13.9999L7.99984 1.33325L15.3332 13.9999H0.666504ZM7.5665 10.1999H8.5665V6.46658H7.5665V10.1999ZM8.0665 12.0499C8.21095 12.0499 8.33039 12.0027 8.42484 11.9082C8.51928 11.8138 8.5665 11.6944 8.5665 11.5499C8.5665 11.4055 8.51928 11.286 8.42484 11.1916C8.33039 11.0971 8.21095 11.0499 8.0665 11.0499C7.92206 11.0499 7.80262 11.0971 7.70817 11.1916C7.61373 11.286 7.5665 11.4055 7.5665 11.5499C7.5665 11.6944 7.61373 11.8138 7.70817 11.9082C7.80262 12.0027 7.92206 12.0499 8.0665 12.0499ZM2.39984 12.9999H13.5998L7.99984 3.33325L2.39984 12.9999Z" fill="#FFCE00"/>
</svg>
