<svg width="24" height="24" viewBox="0 0 24 24" fill="none" xmlns="http://www.w3.org/2000/svg">
<mask id="mask0_4294_22517" style="mask-type:alpha" maskUnits="userSpaceOnUse" x="0" y="0" width="24" height="24">
<rect width="24" height="24" fill="#D9D9D9"/>
</mask>
<g mask="url(#mask0_4294_22517)">
<path d="M10.775 19.25L9.35 17.925C7.56667 16.3084 5.97933 14.7207 4.588 13.162C3.196 11.604 2.5 9.93336 2.5 8.15002C2.5 6.73336 2.97933 5.54569 3.938 4.58702C4.896 3.62902 6.08333 3.15002 7.5 3.15002C8.3 3.15002 9.096 3.33736 9.888 3.71202C10.6793 4.08736 11.3833 4.69169 12 5.52502C12.6167 4.69169 13.321 4.08736 14.113 3.71202C14.9043 3.33736 15.7 3.15002 16.5 3.15002C17.9167 3.15002 19.104 3.62902 20.062 4.58702C21.0207 5.54569 21.5 6.73336 21.5 8.15002C21.5 9.95002 20.7917 11.6374 19.375 13.212C17.9583 14.7874 16.375 16.3667 14.625 17.95L13.225 19.225C12.875 19.5584 12.4667 19.725 12 19.725C11.5333 19.725 11.125 19.5667 10.775 19.25ZM11.275 7.05002C10.7417 6.21669 10.175 5.60836 9.575 5.22502C8.975 4.84169 8.28333 4.65002 7.5 4.65002C6.5 4.65002 5.66667 4.98336 5 5.65002C4.33333 6.31669 4 7.15002 4 8.15002C4 8.95002 4.25833 9.78736 4.775 10.662C5.29167 11.5374 5.94167 12.4084 6.725 13.275C7.50833 14.1417 8.354 14.9874 9.262 15.812C10.1707 16.6374 11.0167 17.4084 11.8 18.125C11.85 18.175 11.9167 18.2 12 18.2C12.0833 18.2 12.15 18.175 12.2 18.125C12.9833 17.4084 13.8293 16.6374 14.738 15.812C15.646 14.9874 16.4917 14.1417 17.275 13.275C18.0583 12.4084 18.7083 11.5374 19.225 10.662C19.7417 9.78736 20 8.95002 20 8.15002C20 7.15002 19.6667 6.31669 19 5.65002C18.3333 4.98336 17.5 4.65002 16.5 4.65002C15.7167 4.65002 15.025 4.84169 14.425 5.22502C13.825 5.60836 13.2583 6.21669 12.725 7.05002C12.6417 7.16669 12.5333 7.25836 12.4 7.32502C12.2667 7.39169 12.1333 7.42502 12 7.42502C11.8667 7.42502 11.7333 7.39169 11.6 7.32502C11.4667 7.25836 11.3583 7.16669 11.275 7.05002Z" fill="#867F70"/>
</g>
</svg>
