<svg width="24" height="24" viewBox="0 0 24 24" fill="none" xmlns="http://www.w3.org/2000/svg">
<mask id="mask0_4294_21910" style="mask-type:alpha" maskUnits="userSpaceOnUse" x="0" y="0" width="24" height="24">
<rect width="24" height="24" fill="#D9D9D9"/>
</mask>
<g mask="url(#mask0_4294_21910)">
<path d="M11.275 7.0499C10.7417 6.21657 10.175 5.60824 9.575 5.2249C8.975 4.84157 8.28333 4.6499 7.5 4.6499C6.5 4.6499 5.66667 4.98324 5 5.6499C4.33333 6.31657 4 7.1499 4 8.1499C4 8.9499 4.25833 9.78724 4.775 10.6619C5.29167 11.5372 5.94167 12.4082 6.725 13.2749C7.50833 14.1416 8.354 14.9872 9.262 15.8119C10.1707 16.6372 11.0167 17.4082 11.8 18.1249C11.85 18.1749 11.9167 18.1999 12 18.1999C12.0833 18.1999 12.15 18.1749 12.2 18.1249C12.9833 17.4082 13.8293 16.6372 14.738 15.8119C15.646 14.9872 16.4917 14.1416 17.275 13.2749C18.0583 12.4082 18.7083 11.5372 19.225 10.6619C19.7417 9.78724 20 8.9499 20 8.1499C20 7.1499 19.6667 6.31657 19 5.6499C18.3333 4.98324 17.5 4.6499 16.5 4.6499C15.7167 4.6499 15.025 4.84157 14.425 5.2249C13.825 5.60824 13.2583 6.21657 12.725 7.0499C12.6417 7.16657 12.5333 7.25824 12.4 7.3249C12.2667 7.39157 12.1333 7.4249 12 7.4249C11.8667 7.4249 11.7333 7.39157 11.6 7.3249C11.4667 7.25824 11.3583 7.16657 11.275 7.0499Z" fill="#00DA93"/>
<path d="M10.775 19.2499L9.35 17.9249C7.56667 16.3082 5.97933 14.7206 4.588 13.1619C3.196 11.6039 2.5 9.93324 2.5 8.1499C2.5 6.73324 2.97933 5.54557 3.938 4.5869C4.896 3.6289 6.08333 3.1499 7.5 3.1499C8.3 3.1499 9.096 3.33724 9.888 3.7119C10.6793 4.08724 11.3833 4.69157 12 5.5249C12.6167 4.69157 13.321 4.08724 14.113 3.7119C14.9043 3.33724 15.7 3.1499 16.5 3.1499C17.9167 3.1499 19.104 3.6289 20.062 4.5869C21.0207 5.54557 21.5 6.73324 21.5 8.1499C21.5 9.9499 20.7917 11.6372 19.375 13.2119C17.9583 14.7872 16.375 16.3666 14.625 17.9499L13.225 19.2249C12.875 19.5582 12.4667 19.7249 12 19.7249C11.5333 19.7249 11.125 19.5666 10.775 19.2499ZM11.275 7.0499C10.7417 6.21657 10.175 5.60824 9.575 5.2249C8.975 4.84157 8.28333 4.6499 7.5 4.6499C6.5 4.6499 5.66667 4.98324 5 5.6499C4.33333 6.31657 4 7.1499 4 8.1499C4 8.9499 4.25833 9.78724 4.775 10.6619C5.29167 11.5372 5.94167 12.4082 6.725 13.2749C7.50833 14.1416 8.354 14.9872 9.262 15.8119C10.1707 16.6372 11.0167 17.4082 11.8 18.1249C11.85 18.1749 11.9167 18.1999 12 18.1999C12.0833 18.1999 12.15 18.1749 12.2 18.1249C12.9833 17.4082 13.8293 16.6372 14.738 15.8119C15.646 14.9872 16.4917 14.1416 17.275 13.2749C18.0583 12.4082 18.7083 11.5372 19.225 10.6619C19.7417 9.78724 20 8.9499 20 8.1499C20 7.1499 19.6667 6.31657 19 5.6499C18.3333 4.98324 17.5 4.6499 16.5 4.6499C15.7167 4.6499 15.025 4.84157 14.425 5.2249C13.825 5.60824 13.2583 6.21657 12.725 7.0499C12.6417 7.16657 12.5333 7.25824 12.4 7.3249C12.2667 7.39157 12.1333 7.4249 12 7.4249C11.8667 7.4249 11.7333 7.39157 11.6 7.3249C11.4667 7.25824 11.3583 7.16657 11.275 7.0499Z" fill="#28241C"/>
</g>
</svg>
