<svg width="20" height="20" viewBox="0 0 20 20" fill="none" xmlns="http://www.w3.org/2000/svg">
<path d="M10.75 9.25H18.475C18.2917 7.21667 17.4708 5.45417 16.0125 3.9625C14.5542 2.47083 12.8 1.65833 10.75 1.525V9.25ZM9.25 18.475V1.525C7.06667 1.70833 5.22917 2.61667 3.7375 4.25C2.24583 5.88333 1.5 7.8 1.5 10C1.5 12.2 2.24583 14.1167 3.7375 15.75C5.22917 17.3833 7.06667 18.2917 9.25 18.475ZM10.75 18.475C12.8 18.3417 14.5542 17.5292 16.0125 16.0375C17.4708 14.5458 18.2917 12.7833 18.475 10.75H10.75V18.475ZM10 20C8.61667 20 7.31667 19.7375 6.1 19.2125C4.88333 18.6875 3.825 17.975 2.925 17.075C2.025 16.175 1.3125 15.1167 0.7875 13.9C0.2625 12.6833 0 11.3833 0 10C0 8.61667 0.2625 7.31667 0.7875 6.1C1.3125 4.88333 2.025 3.825 2.925 2.925C3.825 2.025 4.88333 1.3125 6.1 0.7875C7.31667 0.2625 8.61667 0 10 0C11.3833 0 12.6833 0.2625 13.9 0.7875C15.1167 1.3125 16.175 2.025 17.075 2.925C17.975 3.825 18.6875 4.88333 19.2125 6.1C19.7375 7.31667 20 8.61667 20 10C20 11.3833 19.7375 12.6833 19.2125 13.9C18.6875 15.1167 17.975 16.175 17.075 17.075C16.175 17.975 15.1167 18.6875 13.9 19.2125C12.6833 19.7375 11.3833 20 10 20Z" fill="#82AABE"/>
</svg>
