<svg width="24" height="24" viewBox="0 0 24 24" fill="none" xmlns="http://www.w3.org/2000/svg">
<path d="M12.75 11.25H20.475C20.2917 9.21667 19.4708 7.45417 18.0125 5.9625C16.5542 4.47083 14.8 3.65833 12.75 3.525V11.25ZM11.25 20.475V3.525C9.06667 3.70833 7.22917 4.61667 5.7375 6.25C4.24583 7.88333 3.5 9.8 3.5 12C3.5 14.2 4.24583 16.1167 5.7375 17.75C7.22917 19.3833 9.06667 20.2917 11.25 20.475ZM12.75 20.475C14.8 20.3417 16.5542 19.5292 18.0125 18.0375C19.4708 16.5458 20.2917 14.7833 20.475 12.75H12.75V20.475ZM12 22C10.6167 22 9.31667 21.7375 8.1 21.2125C6.88333 20.6875 5.825 19.975 4.925 19.075C4.025 18.175 3.3125 17.1167 2.7875 15.9C2.2625 14.6833 2 13.3833 2 12C2 10.6167 2.2625 9.31667 2.7875 8.1C3.3125 6.88333 4.025 5.825 4.925 4.925C5.825 4.025 6.88333 3.3125 8.1 2.7875C9.31667 2.2625 10.6167 2 12 2C13.3833 2 14.6833 2.2625 15.9 2.7875C17.1167 3.3125 18.175 4.025 19.075 4.925C19.975 5.825 20.6875 6.88333 21.2125 8.1C21.7375 9.31667 22 10.6167 22 12C22 13.3833 21.7375 14.6833 21.2125 15.9C20.6875 17.1167 19.975 18.175 19.075 19.075C18.175 19.975 17.1167 20.6875 15.9 21.2125C14.6833 21.7375 13.3833 22 12 22Z" fill="#867F70"/>
</svg>
