<svg width="24" height="24" viewBox="0 0 24 24" fill="none" xmlns="http://www.w3.org/2000/svg">
<mask id="mask0_427_14986" style="mask-type:alpha" maskUnits="userSpaceOnUse" x="0" y="0" width="24" height="24">
<rect width="24" height="24" fill="#D9D9D9"/>
</mask>
<g mask="url(#mask0_427_14986)">
<rect x="3" y="7" width="18" height="12" fill="#00DA93"/>
<mask id="mask1_427_14986" style="mask-type:alpha" maskUnits="userSpaceOnUse" x="-1" y="-1" width="25" height="25">
<rect x="-0.133789" y="-0.252686" width="24" height="24" fill="#D9D9D9"/>
</mask>
<g mask="url(#mask1_427_14986)">
<path d="M3.91621 20.4974C3.41621 20.4974 2.99121 20.3224 2.64121 19.9724C2.29121 19.6224 2.11621 19.1974 2.11621 18.6974V4.24741C2.11621 3.99741 2.17454 3.84741 2.29121 3.79741C2.40788 3.74741 2.55788 3.80575 2.74121 3.97241L3.54121 4.77241L4.56621 3.74741C4.64954 3.66408 4.74554 3.59741 4.85421 3.54741C4.96221 3.49741 5.07454 3.47241 5.19121 3.47241C5.30788 3.47241 5.42021 3.49308 5.52821 3.53441C5.63688 3.57641 5.74121 3.64741 5.84121 3.74741L6.86621 4.77241L7.89121 3.74741C7.99121 3.64741 8.09554 3.57641 8.20421 3.53441C8.31221 3.49308 8.42454 3.47241 8.54121 3.47241C8.65788 3.47241 8.77021 3.49741 8.87821 3.54741C8.98688 3.59741 9.08288 3.66408 9.16621 3.74741L10.1912 4.77241L11.2412 3.74741C11.3245 3.64741 11.4205 3.57641 11.5292 3.53441C11.6372 3.49308 11.7495 3.47241 11.8662 3.47241C11.9829 3.47241 12.0955 3.49308 12.2042 3.53441C12.3122 3.57641 12.4079 3.64741 12.4912 3.74741L13.5412 4.77241L14.5662 3.74741C14.6495 3.66408 14.7455 3.59741 14.8542 3.54741C14.9622 3.49741 15.0745 3.47241 15.1912 3.47241C15.3079 3.47241 15.4205 3.49308 15.5292 3.53441C15.6372 3.57641 15.7412 3.64741 15.8412 3.74741L16.8662 4.77241L17.8912 3.74741C17.9912 3.64741 18.0952 3.57641 18.2032 3.53441C18.3119 3.49308 18.4245 3.47241 18.5412 3.47241C18.6579 3.47241 18.7705 3.49741 18.8792 3.54741C18.9872 3.59741 19.0829 3.66408 19.1662 3.74741L20.1912 4.77241L20.9912 3.97241C21.1745 3.80575 21.3245 3.74741 21.4412 3.79741C21.5579 3.84741 21.6162 3.99741 21.6162 4.24741V18.6974C21.6162 19.1974 21.4412 19.6224 21.0912 19.9724C20.7412 20.3224 20.3162 20.4974 19.8162 20.4974H3.91621ZM3.91621 18.9974H11.1162V12.4974H3.61621V18.6974C3.61621 18.7807 3.64554 18.8517 3.70421 18.9104C3.76221 18.9684 3.83288 18.9974 3.91621 18.9974ZM12.6162 18.9974H19.8162C19.8995 18.9974 19.9705 18.9684 20.0292 18.9104C20.0872 18.8517 20.1162 18.7807 20.1162 18.6974V16.4974H12.6162V18.9974ZM12.6162 14.9974H20.1162V12.4974H12.6162V14.9974ZM3.61621 10.9974H20.1162V7.39741H3.61621V10.9974Z" fill="#221E16"/>
</g>
</g>
</svg>
