<svg width="24" height="24" viewBox="0 0 24 24" fill="none" xmlns="http://www.w3.org/2000/svg">
<mask id="mask0_4814_18650" style="mask-type:alpha" maskUnits="userSpaceOnUse" x="0" y="0" width="24" height="24">
<rect width="24" height="24" fill="#D9D9D9"/>
</mask>
<g mask="url(#mask0_4814_18650)">
<path d="M7.725 13.375C7.725 13.925 8 14.5457 8.55 15.237C9.1 15.929 10.1917 17.0167 11.825 18.5L12 18.675L12.2 18.475C13.7667 17.0583 14.8377 15.996 15.413 15.288C15.9877 14.5793 16.275 13.9417 16.275 13.375C16.275 12.9083 16.125 12.5167 15.825 12.2C15.525 11.8833 15.15 11.725 14.7 11.725C14.4333 11.725 14.175 11.7873 13.925 11.912C13.675 12.0373 13.475 12.2 13.325 12.4L12.2 13.725H11.775L10.65 12.4C10.5 12.2 10.304 12.0373 10.062 11.912C9.82067 11.7873 9.56667 11.725 9.3 11.725C8.83333 11.725 8.454 11.8833 8.162 12.2C7.87067 12.5167 7.725 12.9083 7.725 13.375Z" fill="#00DA93"/>
<path d="M4 13.3V20H11.2462L10.95 19.725C9.01667 17.975 7.746 16.6877 7.138 15.863C6.52933 15.0377 6.225 14.2083 6.225 13.375C6.225 13.2479 6.23207 13.1229 6.2462 13H4.3C4.21667 13 4.146 13.029 4.088 13.087C4.02933 13.1457 4 13.2167 4 13.3Z" fill="#00DA93"/>
<path d="M20 20V13.3C20 13.2167 19.971 13.1457 19.913 13.087C19.8543 13.029 19.7833 13 19.7 13H17.753C17.7677 13.1231 17.775 13.2481 17.775 13.375C17.775 14.2083 17.4627 15.0417 16.838 15.875C16.2127 16.7083 14.9583 17.9833 13.075 19.7L12.7525 20H20Z" fill="#00DA93"/>
<path d="M19 8.5C19.2833 8.5 19.5207 8.40433 19.712 8.213C19.904 8.021 20 7.78333 20 7.5C20 7.21667 19.904 6.979 19.712 6.787C19.5207 6.59567 19.2833 6.5 19 6.5C18.7167 6.5 18.4793 6.59567 18.288 6.787C18.096 6.979 18 7.21667 18 7.5C18 7.78333 18.096 8.021 18.288 8.213C18.4793 8.40433 18.7167 8.5 19 8.5Z" fill="#00DA93"/>
<path d="M12 7.5C12.4167 7.5 12.7707 7.35833 13.062 7.075C13.354 6.79167 13.5 6.43333 13.5 6C13.5 5.58333 13.354 5.22933 13.062 4.938C12.7707 4.646 12.4167 4.5 12 4.5C11.5667 4.5 11.2083 4.646 10.925 4.938C10.6417 5.22933 10.5 5.58333 10.5 6C10.5 6.43333 10.6417 6.79167 10.925 7.075C11.2083 7.35833 11.5667 7.5 12 7.5Z" fill="#00DA93"/>
<path d="M5 8.5C5.28333 8.5 5.521 8.40433 5.713 8.213C5.90433 8.021 6 7.78333 6 7.5C6 7.21667 5.90433 6.979 5.713 6.787C5.521 6.59567 5.28333 6.5 5 6.5C4.71667 6.5 4.479 6.59567 4.287 6.787C4.09567 6.979 4 7.21667 4 7.5C4 7.78333 4.09567 8.021 4.287 8.213C4.479 8.40433 4.71667 8.5 5 8.5Z" fill="#00DA93"/>
<path fill-rule="evenodd" clip-rule="evenodd" d="M20 13.3V20H12.7525L13.075 19.7C14.9583 17.9833 16.2127 16.7083 16.838 15.875C17.4627 15.0417 17.775 14.2083 17.775 13.375C17.775 13.2481 17.7677 13.1231 17.753 13H19.7C19.7833 13 19.8543 13.029 19.913 13.087C19.971 13.1457 20 13.2167 20 13.3ZM17.1446 11.5H19.7C20.2 11.5 20.625 11.675 20.975 12.025C21.325 12.375 21.5 12.8 21.5 13.3V21.5H12.075H2.5V13.3C2.5 12.8 2.675 12.375 3.025 12.025C3.375 11.675 3.8 11.5 4.3 11.5H6.84429C6.81859 11.535 6.79369 11.5703 6.76959 11.6058C6.47817 12.0354 6.3037 12.5001 6.2462 13H4.3C4.21667 13 4.146 13.029 4.088 13.087C4.02933 13.1457 4 13.2167 4 13.3V20H11.2462L10.95 19.725C9.01667 17.975 7.746 16.6877 7.138 15.863C6.52933 15.0377 6.225 14.2083 6.225 13.375C6.225 13.2479 6.23207 13.1229 6.2462 13H6.9V11.5H6.84429C6.92218 11.3938 7.00741 11.2898 7.1 11.188C7.68333 10.546 8.41667 10.225 9.3 10.225C9.8 10.225 10.275 10.3417 10.725 10.575C11.175 10.8083 11.5583 11.1167 11.875 11.5L12 11.65L12.125 11.5C12.4417 11.1167 12.821 10.8083 13.263 10.575C13.7043 10.3417 14.1833 10.225 14.7 10.225C15.5833 10.225 16.3167 10.55 16.9 11.2C16.9882 11.2983 17.0697 11.3983 17.1446 11.5ZM19.712 8.213C19.5207 8.40433 19.2833 8.5 19 8.5C18.7167 8.5 18.4793 8.40433 18.288 8.213C18.096 8.021 18 7.78333 18 7.5C18 7.21667 18.096 6.979 18.288 6.787C18.4793 6.59567 18.7167 6.5 19 6.5C19.2833 6.5 19.5207 6.59567 19.712 6.787C19.904 6.979 20 7.21667 20 7.5C20 7.78333 19.904 8.021 19.712 8.213ZM17.212 9.287C17.6873 9.76233 18.2833 10 19 10C19.7 10 20.2917 9.76233 20.775 9.287C21.2583 8.81233 21.5 8.21667 21.5 7.5C21.5 6.8 21.2583 6.20833 20.775 5.725C20.2917 5.24167 19.7 5 19 5C18.2833 5 17.6873 5.24167 17.212 5.725C16.7373 6.20833 16.5 6.8 16.5 7.5C16.5 8.21667 16.7373 8.81233 17.212 9.287ZM13.062 7.075C12.7707 7.35833 12.4167 7.5 12 7.5C11.5667 7.5 11.2083 7.35833 10.925 7.075C10.6417 6.79167 10.5 6.43333 10.5 6C10.5 5.58333 10.6417 5.22933 10.925 4.938C11.2083 4.646 11.5667 4.5 12 4.5C12.4167 4.5 12.7707 4.646 13.062 4.938C13.354 5.22933 13.5 5.58333 13.5 6C13.5 6.43333 13.354 6.79167 13.062 7.075ZM9.863 8.137C10.4377 8.71233 11.15 9 12 9C12.8333 9 13.5417 8.71233 14.125 8.137C14.7083 7.56233 15 6.85 15 6C15 5.16667 14.7083 4.45833 14.125 3.875C13.5417 3.29167 12.8333 3 12 3C11.15 3 10.4377 3.29167 9.863 3.875C9.28767 4.45833 9 5.16667 9 6C9 6.85 9.28767 7.56233 9.863 8.137ZM8.55 15.237C8 14.5457 7.725 13.925 7.725 13.375C7.725 12.9083 7.87067 12.5167 8.162 12.2C8.454 11.8833 8.83333 11.725 9.3 11.725C9.56667 11.725 9.82067 11.7873 10.062 11.912C10.304 12.0373 10.5 12.2 10.65 12.4L11.775 13.725H12.2L13.325 12.4C13.475 12.2 13.675 12.0373 13.925 11.912C14.175 11.7873 14.4333 11.725 14.7 11.725C15.15 11.725 15.525 11.8833 15.825 12.2C16.125 12.5167 16.275 12.9083 16.275 13.375C16.275 13.9417 15.9877 14.5793 15.413 15.288C14.8377 15.996 13.7667 17.0583 12.2 18.475L12 18.675L11.825 18.5C10.1917 17.0167 9.1 15.929 8.55 15.237ZM5.713 8.213C5.521 8.40433 5.28333 8.5 5 8.5C4.71667 8.5 4.479 8.40433 4.287 8.213C4.09567 8.021 4 7.78333 4 7.5C4 7.21667 4.09567 6.979 4.287 6.787C4.479 6.59567 4.71667 6.5 5 6.5C5.28333 6.5 5.521 6.59567 5.713 6.787C5.90433 6.979 6 7.21667 6 7.5C6 7.78333 5.90433 8.021 5.713 8.213ZM3.213 9.287C3.68767 9.76233 4.28333 10 5 10C5.7 10 6.29167 9.76233 6.775 9.287C7.25833 8.81233 7.5 8.21667 7.5 7.5C7.5 6.8 7.25833 6.20833 6.775 5.725C6.29167 5.24167 5.7 5 5 5C4.28333 5 3.68767 5.24167 3.213 5.725C2.73767 6.20833 2.5 6.8 2.5 7.5C2.5 8.21667 2.73767 8.81233 3.213 9.287Z" fill="#28241C"/>
<path d="M6.9 13V11.5H6.84429C6.81859 11.535 6.79369 11.5703 6.76959 11.6058C6.47817 12.0354 6.3037 12.5001 6.2462 13H6.9Z" fill="#28241C"/>
</g>
</svg>
