<svg width="24" height="24" viewBox="0 0 24 24" fill="none" xmlns="http://www.w3.org/2000/svg">
<mask id="mask0_4814_19053" style="mask-type:alpha" maskUnits="userSpaceOnUse" x="0" y="0" width="24" height="24">
<rect width="24" height="24" fill="#D9D9D9"/>
</mask>
<g mask="url(#mask0_4814_19053)">
<path d="M20 20V13V13.3V20ZM19 8.5C19.2833 8.5 19.5207 8.40433 19.712 8.213C19.904 8.021 20 7.78333 20 7.5C20 7.21667 19.904 6.979 19.712 6.787C19.5207 6.59567 19.2833 6.5 19 6.5C18.7167 6.5 18.4793 6.59567 18.288 6.787C18.096 6.979 18 7.21667 18 7.5C18 7.78333 18.096 8.021 18.288 8.213C18.4793 8.40433 18.7167 8.5 19 8.5ZM19 10C18.2833 10 17.6873 9.76233 17.212 9.287C16.7373 8.81233 16.5 8.21667 16.5 7.5C16.5 6.8 16.7373 6.20833 17.212 5.725C17.6873 5.24167 18.2833 5 19 5C19.7 5 20.2917 5.24167 20.775 5.725C21.2583 6.20833 21.5 6.8 21.5 7.5C21.5 8.21667 21.2583 8.81233 20.775 9.287C20.2917 9.76233 19.7 10 19 10ZM12 7.5C12.4167 7.5 12.7707 7.35833 13.062 7.075C13.354 6.79167 13.5 6.43333 13.5 6C13.5 5.58333 13.354 5.22933 13.062 4.938C12.7707 4.646 12.4167 4.5 12 4.5C11.5667 4.5 11.2083 4.646 10.925 4.938C10.6417 5.22933 10.5 5.58333 10.5 6C10.5 6.43333 10.6417 6.79167 10.925 7.075C11.2083 7.35833 11.5667 7.5 12 7.5ZM12 9C11.15 9 10.4377 8.71233 9.863 8.137C9.28767 7.56233 9 6.85 9 6C9 5.16667 9.28767 4.45833 9.863 3.875C10.4377 3.29167 11.15 3 12 3C12.8333 3 13.5417 3.29167 14.125 3.875C14.7083 4.45833 15 5.16667 15 6C15 6.85 14.7083 7.56233 14.125 8.137C13.5417 8.71233 12.8333 9 12 9ZM7.725 13.375C7.725 13.925 8 14.5457 8.55 15.237C9.1 15.929 10.1917 17.0167 11.825 18.5L12 18.675L12.2 18.475C13.7667 17.0583 14.8377 15.996 15.413 15.288C15.9877 14.5793 16.275 13.9417 16.275 13.375C16.275 12.9083 16.125 12.5167 15.825 12.2C15.525 11.8833 15.15 11.725 14.7 11.725C14.4333 11.725 14.175 11.7873 13.925 11.912C13.675 12.0373 13.475 12.2 13.325 12.4L12.2 13.725H11.775L10.65 12.4C10.5 12.2 10.304 12.0373 10.062 11.912C9.82067 11.7873 9.56667 11.725 9.3 11.725C8.83333 11.725 8.454 11.8833 8.162 12.2C7.87067 12.5167 7.725 12.9083 7.725 13.375ZM6.225 13.375C6.225 12.5583 6.51667 11.8293 7.1 11.188C7.68333 10.546 8.41667 10.225 9.3 10.225C9.8 10.225 10.275 10.3417 10.725 10.575C11.175 10.8083 11.5583 11.1167 11.875 11.5L12 11.65L12.125 11.5C12.4417 11.1167 12.821 10.8083 13.263 10.575C13.7043 10.3417 14.1833 10.225 14.7 10.225C15.5833 10.225 16.3167 10.55 16.9 11.2C17.4833 11.85 17.775 12.575 17.775 13.375C17.775 14.2083 17.4627 15.0417 16.838 15.875C16.2127 16.7083 14.9583 17.9833 13.075 19.7L12 20.7L10.95 19.725C9.01667 17.975 7.746 16.6877 7.138 15.863C6.52933 15.0377 6.225 14.2083 6.225 13.375ZM5 8.5C5.28333 8.5 5.521 8.40433 5.713 8.213C5.90433 8.021 6 7.78333 6 7.5C6 7.21667 5.90433 6.979 5.713 6.787C5.521 6.59567 5.28333 6.5 5 6.5C4.71667 6.5 4.479 6.59567 4.287 6.787C4.09567 6.979 4 7.21667 4 7.5C4 7.78333 4.09567 8.021 4.287 8.213C4.479 8.40433 4.71667 8.5 5 8.5ZM12.075 21.5V20H20V13.3C20 13.2167 19.971 13.1457 19.913 13.087C19.8543 13.029 19.7833 13 19.7 13H17.1V11.5H19.7C20.2 11.5 20.625 11.675 20.975 12.025C21.325 12.375 21.5 12.8 21.5 13.3V21.5H12.075ZM4 20H12.075V21.5H2.5V13.3C2.5 12.8 2.675 12.375 3.025 12.025C3.375 11.675 3.8 11.5 4.3 11.5H6.9V13H4.3C4.21667 13 4.146 13.029 4.088 13.087C4.02933 13.1457 4 13.2167 4 13.3V20ZM5 10C4.28333 10 3.68767 9.76233 3.213 9.287C2.73767 8.81233 2.5 8.21667 2.5 7.5C2.5 6.8 2.73767 6.20833 3.213 5.725C3.68767 5.24167 4.28333 5 5 5C5.7 5 6.29167 5.24167 6.775 5.725C7.25833 6.20833 7.5 6.8 7.5 7.5C7.5 8.21667 7.25833 8.81233 6.775 9.287C6.29167 9.76233 5.7 10 5 10Z" fill="#867F70"/>
</g>
</svg>
