<svg width="24" height="24" viewBox="0 0 24 24" fill="none" xmlns="http://www.w3.org/2000/svg">
<mask id="mask0_4779_2169" style="mask-type:alpha" maskUnits="userSpaceOnUse" x="0" y="0" width="24" height="24">
<rect width="24" height="24" fill="#D9D9D9"/>
</mask>
<g mask="url(#mask0_4779_2169)">
<path d="M11.25 17.75H12.75V16.75H14C14.2167 16.75 14.396 16.6793 14.538 16.538C14.6793 16.396 14.75 16.2167 14.75 16V13C14.75 12.7833 14.6793 12.604 14.538 12.462C14.396 12.3207 14.2167 12.25 14 12.25H10.75V10.75H14.75V9.25H12.75V8.25H11.25V9.25H10C9.78333 9.25 9.60433 9.32067 9.463 9.462C9.321 9.604 9.25 9.78333 9.25 10V13C9.25 13.2167 9.321 13.3957 9.463 13.537C9.60433 13.679 9.78333 13.75 10 13.75H13.25V15.25H9.25V16.75H11.25V17.75ZM6.3 21.5C5.8 21.5 5.375 21.325 5.025 20.975C4.675 20.625 4.5 20.2 4.5 19.7V4.3C4.5 3.8 4.675 3.375 5.025 3.025C5.375 2.675 5.8 2.5 6.3 2.5H13.8L19.5 8.2V19.7C19.5 20.2 19.325 20.625 18.975 20.975C18.625 21.325 18.2 21.5 17.7 21.5H6.3ZM6.3 20H17.7C17.7667 20 17.8333 19.9667 17.9 19.9C17.9667 19.8333 18 19.7667 18 19.7V8.85L13.15 4H6.3C6.23333 4 6.16667 4.03333 6.1 4.1C6.03333 4.16667 6 4.23333 6 4.3V19.7C6 19.7667 6.03333 19.8333 6.1 19.9C6.16667 19.9667 6.23333 20 6.3 20Z" fill="#28241C"/>
<path fill-rule="evenodd" clip-rule="evenodd" d="M6.3 20H17.7C17.7667 20 17.8333 19.9667 17.9 19.9C17.9667 19.8333 18 19.7667 18 19.7V8.85L13.15 4H6.3C6.23333 4 6.16667 4.03333 6.1 4.1C6.03333 4.16667 6 4.23333 6 4.3V19.7C6 19.7667 6.03333 19.8333 6.1 19.9C6.16667 19.9667 6.23333 20 6.3 20ZM12.75 17.75H11.25V16.75H9.25V15.25H13.25V13.75H10C9.78333 13.75 9.60433 13.679 9.463 13.537C9.321 13.3957 9.25 13.2167 9.25 13V10C9.25 9.78333 9.321 9.604 9.463 9.462C9.60433 9.32067 9.78333 9.25 10 9.25H11.25V8.25H12.75V9.25H14.75V10.75H10.75V12.25H14C14.2167 12.25 14.396 12.3207 14.538 12.462C14.6793 12.604 14.75 12.7833 14.75 13V16C14.75 16.2167 14.6793 16.396 14.538 16.538C14.396 16.6793 14.2167 16.75 14 16.75H12.75V17.75Z" fill="#00DA93"/>
</g>
</svg>
