<svg width="24" height="24" viewBox="0 0 24 24" fill="none" xmlns="http://www.w3.org/2000/svg">
<mask id="mask0_3783_17263" style="mask-type:alpha" maskUnits="userSpaceOnUse" x="0" y="0" width="24" height="24">
<rect width="24" height="24" fill="#D9D9D9"/>
</mask>
<g mask="url(#mask0_3783_17263)">
<circle cx="12" cy="12" r="8" fill="white"/>
<path d="M11.3 18.8H12.65V17.6C13.4333 17.5 14.1377 17.2083 14.763 16.725C15.3877 16.2417 15.7 15.5167 15.7 14.55C15.7 13.85 15.496 13.2293 15.088 12.688C14.6793 12.146 13.875 11.6583 12.675 11.225C11.625 10.875 10.925 10.5667 10.575 10.3C10.225 10.0333 10.05 9.66667 10.05 9.2C10.05 8.73333 10.2293 8.35 10.588 8.05C10.946 7.75 11.4333 7.6 12.05 7.6C12.5667 7.6 12.9873 7.725 13.312 7.975C13.6373 8.225 13.8833 8.53333 14.05 8.9L15.275 8.4C15.075 7.86667 14.7377 7.41233 14.263 7.037C13.7877 6.66233 13.2667 6.45 12.7 6.4V5.2H11.35V6.4C10.5 6.56667 9.846 6.91233 9.388 7.437C8.92933 7.96233 8.7 8.55 8.7 9.2C8.7 9.95 8.925 10.554 9.375 11.012C9.825 11.4707 10.5667 11.8833 11.6 12.25C12.6667 12.65 13.3917 13.004 13.775 13.312C14.1583 13.6207 14.35 14.0333 14.35 14.55C14.35 15.1833 14.125 15.6417 13.675 15.925C13.225 16.2083 12.7167 16.35 12.15 16.35C11.5833 16.35 11.0793 16.1793 10.638 15.838C10.196 15.496 9.85833 15 9.625 14.35L8.35 14.875C8.61667 15.6083 8.99167 16.1957 9.475 16.637C9.95833 17.079 10.5667 17.3833 11.3 17.55V18.8ZM12 21.5C10.6833 21.5 9.45 21.25 8.3 20.75C7.15 20.25 6.14567 19.5707 5.287 18.712C4.429 17.854 3.75 16.85 3.25 15.7C2.75 14.55 2.5 13.3167 2.5 12C2.5 10.6833 2.75 9.45 3.25 8.3C3.75 7.15 4.429 6.14567 5.287 5.287C6.14567 4.429 7.15 3.75 8.3 3.25C9.45 2.75 10.6833 2.5 12 2.5C13.3167 2.5 14.55 2.75 15.7 3.25C16.85 3.75 17.854 4.429 18.712 5.287C19.5707 6.14567 20.25 7.15 20.75 8.3C21.25 9.45 21.5 10.6833 21.5 12C21.5 13.3167 21.25 14.55 20.75 15.7C20.25 16.85 19.5707 17.854 18.712 18.712C17.854 19.5707 16.85 20.25 15.7 20.75C14.55 21.25 13.3167 21.5 12 21.5ZM12 20C14.2333 20 16.125 19.225 17.675 17.675C19.225 16.125 20 14.2333 20 12C20 9.76667 19.225 7.875 17.675 6.325C16.125 4.775 14.2333 4 12 4C9.76667 4 7.875 4.775 6.325 6.325C4.775 7.875 4 9.76667 4 12C4 14.2333 4.775 16.125 6.325 17.675C7.875 19.225 9.76667 20 12 20Z" fill="#867F70"/>
</g>
</svg>
